M48
; DRILL file {KiCad (5.1.10)-1} date 06/09/22 01:24:53
; FORMAT={-:-/ absolute / metric / decimal}
; #@! TF.CreationDate,2022-06-09T01:24:53+10:00
; #@! TF.GenerationSoftware,Kicad,Pcbnew,(5.1.10)-1
; #@! TF.FileFunction,Plated,1,2,PTH
FMAT,2
METRIC
T1C0.800
T2C0.900
T3C1.100
%
G90
G05
T1
X105.0Y-66.5
X105.0Y-82.0
X105.0Y-97.5
X106.38Y-112.68
X106.38Y-115.22
X106.38Y-117.76
X106.38Y-120.3
X106.38Y-122.84
X106.38Y-125.38
X106.38Y-127.92
X106.38Y-130.46
X106.38Y-133.0
X107.0Y-66.5
X107.0Y-82.0
X107.0Y-97.5
X109.0Y-66.5
X109.0Y-82.0
X109.0Y-97.5
X111.0Y-66.5
X111.0Y-82.0
X111.0Y-97.5
X114.0Y-112.68
X114.0Y-115.22
X114.0Y-117.76
X114.0Y-120.3
X114.0Y-122.84
X114.0Y-125.38
X114.0Y-127.92
X114.0Y-130.46
X114.0Y-133.0
X132.5Y-126.5
X132.5Y-132.0
X142.66Y-126.5
X142.66Y-132.0
X157.54Y-64.67
X157.54Y-74.83
X157.54Y-80.18
X157.54Y-90.34
X157.54Y-95.69
X157.54Y-105.85
X175.32Y-64.67
X175.32Y-74.83
X175.32Y-80.18
X175.32Y-90.34
X175.32Y-95.69
X175.32Y-105.85
X181.5Y-82.92
X181.5Y-88.0
X186.58Y-82.92
X186.58Y-88.0
X193.1Y-64.67
X193.1Y-74.83
X193.1Y-80.18
X193.1Y-90.34
X193.1Y-95.69
X193.1Y-105.85
T2
X166.43Y-68.48
X166.43Y-71.02
X166.43Y-83.99
X166.43Y-86.53
X166.43Y-99.5
X166.43Y-102.04
X184.21Y-68.48
X184.21Y-71.02
X184.21Y-99.5
X184.21Y-102.04
X201.99Y-68.48
X201.99Y-71.02
X201.99Y-83.99
X201.99Y-86.53
X201.99Y-99.5
X201.99Y-102.04
T3
X157.5Y-133.0
X160.04Y-133.0
X162.58Y-133.0
X169.5Y-133.0
X172.04Y-133.0
X174.58Y-133.0
T0
M30
