%TF.GenerationSoftware,KiCad,Pcbnew,(5.1.10)-1*%
%TF.CreationDate,2022-06-08T23:05:14+10:00*%
%TF.ProjectId,beehive,62656568-6976-4652-9e6b-696361645f70,rev?*%
%TF.SameCoordinates,Original*%
%TF.FileFunction,Soldermask,Bot*%
%TF.FilePolarity,Negative*%
%FSLAX46Y46*%
G04 Gerber Fmt 4.6, Leading zero omitted, Abs format (unit mm)*
G04 Created by KiCad (PCBNEW (5.1.10)-1) date 2022-06-08 23:05:14*
%MOMM*%
%LPD*%
G01*
G04 APERTURE LIST*
%ADD10C,1.308000*%
%ADD11R,1.308000X1.308000*%
%ADD12O,1.600000X1.600000*%
%ADD13C,1.600000*%
%ADD14C,1.800000*%
%ADD15R,1.800000X1.800000*%
%ADD16O,3.500000X3.500000*%
%ADD17R,1.905000X2.000000*%
%ADD18O,1.905000X2.000000*%
%ADD19R,1.600000X1.600000*%
G04 APERTURE END LIST*
D10*
%TO.C,J3*%
X111000000Y-66500000D03*
X109000000Y-66500000D03*
X107000000Y-66500000D03*
D11*
X105000000Y-66500000D03*
%TD*%
D10*
%TO.C,J2*%
X111000000Y-82000000D03*
X109000000Y-82000000D03*
X107000000Y-82000000D03*
D11*
X105000000Y-82000000D03*
%TD*%
D10*
%TO.C,J1*%
X111000000Y-97500000D03*
X109000000Y-97500000D03*
X107000000Y-97500000D03*
D11*
X105000000Y-97500000D03*
%TD*%
D12*
%TO.C,R10*%
X142660000Y-126500000D03*
D13*
X132500000Y-126500000D03*
%TD*%
D12*
%TO.C,R9*%
X142660000Y-132000000D03*
D13*
X132500000Y-132000000D03*
%TD*%
D12*
%TO.C,R8*%
X193100000Y-80180000D03*
D13*
X193100000Y-90340000D03*
%TD*%
D12*
%TO.C,R7*%
X193100000Y-64670000D03*
D13*
X193100000Y-74830000D03*
%TD*%
D12*
%TO.C,R6*%
X175320000Y-64670000D03*
D13*
X175320000Y-74830000D03*
%TD*%
D12*
%TO.C,R5*%
X157540000Y-64670000D03*
D13*
X157540000Y-74830000D03*
%TD*%
D12*
%TO.C,R4*%
X157540000Y-80180000D03*
D13*
X157540000Y-90340000D03*
%TD*%
D12*
%TO.C,R3*%
X157540000Y-95690000D03*
D13*
X157540000Y-105850000D03*
%TD*%
D12*
%TO.C,R2*%
X175320000Y-95690000D03*
D13*
X175320000Y-105850000D03*
%TD*%
D14*
%TO.C,D8*%
X201990000Y-83990000D03*
D15*
X201990000Y-86530000D03*
%TD*%
D14*
%TO.C,D7*%
X201990000Y-68480000D03*
D15*
X201990000Y-71020000D03*
%TD*%
D14*
%TO.C,D6*%
X184210000Y-68480000D03*
D15*
X184210000Y-71020000D03*
%TD*%
D14*
%TO.C,D5*%
X166430000Y-68480000D03*
D15*
X166430000Y-71020000D03*
%TD*%
D14*
%TO.C,D4*%
X166430000Y-83990000D03*
D15*
X166430000Y-86530000D03*
%TD*%
D14*
%TO.C,D3*%
X166430000Y-99500000D03*
D15*
X166430000Y-102040000D03*
%TD*%
D14*
%TO.C,D2*%
X184210000Y-99500000D03*
D15*
X184210000Y-102040000D03*
%TD*%
D16*
%TO.C,Q1*%
X160040000Y-116340000D03*
D17*
X157500000Y-133000000D03*
D18*
X160040000Y-133000000D03*
X162580000Y-133000000D03*
%TD*%
D16*
%TO.C,Q0*%
X172040000Y-116340000D03*
D17*
X169500000Y-133000000D03*
D18*
X172040000Y-133000000D03*
X174580000Y-133000000D03*
%TD*%
D12*
%TO.C,R0*%
X175320000Y-80180000D03*
D13*
X175320000Y-90340000D03*
%TD*%
D14*
%TO.C,D0*%
X186580000Y-82920000D03*
X186580000Y-88000000D03*
X181500000Y-82920000D03*
D15*
X181500000Y-88000000D03*
%TD*%
D14*
%TO.C,D1*%
X201990000Y-99500000D03*
D15*
X201990000Y-102040000D03*
%TD*%
D12*
%TO.C,U1*%
X106380000Y-133000000D03*
X114000000Y-112680000D03*
X106380000Y-130460000D03*
X114000000Y-115220000D03*
X106380000Y-127920000D03*
X114000000Y-117760000D03*
X106380000Y-125380000D03*
X114000000Y-120300000D03*
X106380000Y-122840000D03*
X114000000Y-122840000D03*
X106380000Y-120300000D03*
X114000000Y-125380000D03*
X106380000Y-117760000D03*
X114000000Y-127920000D03*
X106380000Y-115220000D03*
X114000000Y-130460000D03*
X106380000Y-112680000D03*
D19*
X114000000Y-133000000D03*
%TD*%
D12*
%TO.C,R1*%
X193100000Y-95690000D03*
D13*
X193100000Y-105850000D03*
%TD*%
M02*
